# xmcd
#
# Track frame offsets: 
#        180
#        13761
#        30602
#        43713
#        65217
#        83657
#        98378
#        112079
#        127768
#        141822
#
# Disc length: 2090 seconds
#
# Revision: 0
# Processed by: cddbd v1.5.2PL0 Copyright (c) Steve Scherf et al.
# Submitted via: ExactAudioCopyFreeDBPlugin 1.0
#
DISCID=7d08280a
DTITLE=The Zydeco Blazers - The Zydeco Blazers
DYEAR=1995
DGENRE=Zydeco 
TTITLE0=My Woman Wanna Zydeco
TTITLE1=Pop That Thing
TTITLE2=Don't Bother Me
TTITLE3=Take My Girl to the Dance
TTITLE4=The Blaze
TTITLE5=Leroy's Purple Shoes
TTITLE6=Can't Do It by Myself
TTITLE7=Let Me Pass Through Your Window
TTITLE8=Pookie Two Step
TTITLE9=There You Go
EXTD=
EXTT0=
EXTT1=
EXTT2=
EXTT3=
EXTT4=
EXTT5=
EXTT6=
EXTT7=
EXTT8=
EXTT9=
PLAYORDER=
